<svg width="1504" height="1394" viewBox="0 0 1504 1394" fill="none" xmlns="http://www.w3.org/2000/svg">
<rect x="2.5" y="2.5" width="1499" height="1389" rx="47.5" fill="white" stroke="#79B8CB" stroke-width="5"/>
<path d="M130.5 1155C130.5 1149.75 134.753 1145.5 140 1145.5H411C416.247 1145.5 420.5 1149.75 420.5 1155V1342C420.5 1347.25 416.247 1351.5 411 1351.5H140C134.753 1351.5 130.5 1347.25 130.5 1342V1155Z" fill="#E6E6E6" stroke="#BCBCBC"/>
<path d="M422 1155C422 1150.03 426.029 1146 431 1146H1355C1359.97 1146 1364 1150.03 1364 1155V1342C1364 1346.97 1359.97 1351 1355 1351H431C426.029 1351 422 1346.97 422 1342V1155Z" fill="white" stroke="#E6E6E6" stroke-width="2"/>
<path d="M477.75 1178C477.75 1175.65 479.653 1173.75 482 1173.75H1303C1305.35 1173.75 1307.25 1175.65 1307.25 1178V1284C1307.25 1286.35 1305.35 1288.25 1303 1288.25H482C479.653 1288.25 477.75 1286.35 477.75 1284V1178Z" fill="white" stroke="#AEAEAE" stroke-width="1.5"/>
<path d="M477.75 1305C477.75 1302.65 479.653 1300.75 482 1300.75H623C625.347 1300.75 627.25 1302.65 627.25 1305V1333C627.25 1335.35 625.347 1337.25 623 1337.25H482C479.653 1337.25 477.75 1335.35 477.75 1333V1305Z" fill="#BCBCBC" stroke="#AEAEAE" stroke-width="1.5"/>
</svg>
